<svg xmlns="http://www.w3.org/2000/svg" viewBox="0 -0.5 38 38" shape-rendering="crispEdges">
<path stroke="#c9b46f" d="M18 1h1" />
<path stroke="#baa767" d="M19 1h2M18 2h2M18 3h1" />
<path stroke="#efdfcb" d="M20 2h1M20 3h1" />
<path stroke="#efdcc5" d="M19 3h1M18 4h2M18 5h2M24 14h1M18 16h1" />
<path stroke="#424242" d="M16 5h2M15 6h3M15 7h2M14 12h1M14 13h1M14 14h1M14 15h1" />
<path stroke="#dedfe1" d="M18 6h2M18 7h2M19 8h1M19 9h1M19 16h1M19 18h1M18 19h1M20 19h1M17 20h1" />
<path stroke="#4b4b4b" d="M20 6h1M17 7h1M20 7h2M16 8h3M20 8h1M15 9h4M14 10h5M14 11h1M17 11h1M17 12h1M22 12h1M17 13h1M20 13h1M17 14h1M20 14h1M20 15h1M15 16h1M20 16h1M17 17h2M20 17h1M16 18h1M18 18h1M20 18h1" />
<path stroke="#ff766f" d="M21 8h2M20 9h1M23 9h1M19 10h1M24 10h1M18 11h1" />
<path stroke="#ffd432" d="M21 9h2M20 10h1M23 10h1M19 11h1M24 11h1M18 12h1" />
<path stroke="#68bd60" d="M21 10h2M20 11h1M23 11h1M19 12h1M18 13h1M18 14h1" />
<path stroke="#515151" d="M16 11h1M16 12h1M16 13h1M16 14h1M16 15h2M16 17h1M17 18h1" />
<path stroke="#6169cf" d="M21 11h2M20 12h1M23 12h1M19 13h1M23 13h2M19 14h1M18 15h1" />
<path stroke="#70cc68" d="M24 12h1" />
<path stroke="#d8d9db" d="M19 15h1M19 17h1M16 19h2M19 19h1M21 19h1M16 20h1" />
<path stroke="#3c3c3c" d="M24 15h1M16 16h2" />
<path stroke="#414e6c" d="M18 20h1M20 21h1M21 22h1M21 24h1M21 25h1M21 26h1M21 27h1M21 28h1M21 29h1M21 30h1M21 31h1M21 32h1M21 33h1M21 34h1M21 35h1" />
<path stroke="#3d4a66" d="M19 20h3M21 21h1" />
<path stroke="#475677" d="M16 21h3M16 22h2M20 22h1M16 23h2M20 23h2M16 24h2M16 25h2M16 26h1M16 27h1M16 28h1M16 29h1M16 30h1M16 31h1M16 32h1M16 33h1M16 34h1M16 35h1" />
<path stroke="#50442e" d="M16 36h2M21 36h2" />
</svg>